# xmcd
#
# Track frame offsets:
#	150
#	7851
#	17456
#	28801
#	42358
#	51101
#	62372
#	73410
#	95015
#	106877
#	117960
#	135230
#
# Disc length: 1948 seconds
#
# Revision: 1
# Processed by: cddbd v1.5.2PL0 Copyright (c) Steve Scherf et al.
# Submitted via: EZCDAudioConverter 3.0.7.1
#
DISCID=95079a0c
DTITLE=Bill Clifton and Paul Clayton - The First Recordings_A Bluegrass Session 
DTITLE=1952
DYEAR=1952
DGENRE=Bluegrass
TTITLE0=John Henry
TTITLE1=Watermelon On The Vine
TTITLE2=Roll On The Ground
TTITLE3=Pleasant And Delightful
TTITLE4=The Fox
TTITLE5=John Hardin
TTITLE6=East Virginia Blues
TTITLE7=Jealous Lover
TTITLE8=Beautiful Mable Clare
TTITLE9=Bury Me Beneath The Willow
TTITLE10=Poor Boy
TTITLE11=Roll On The Ground (Previously Unissued 1951)
EXTD=
EXTT0=
EXTT1=
EXTT2=
EXTT3=
EXTT4=
EXTT5=
EXTT6=
EXTT7=
EXTT8=
EXTT9=
EXTT10=
EXTT11=
PLAYORDER=
